<?xml version="1.0" encoding="utf-8"?>
<!-- Generator: Adobe Illustrator 17.0.0, SVG Export Plug-In . SVG Version: 6.00 Build 0)  -->
<!DOCTYPE svg PUBLIC "-//W3C//DTD SVG 1.1//EN" "http://www.w3.org/Graphics/SVG/1.1/DTD/svg11.dtd">
<svg version="1.1" id="Layer_1" xmlns="http://www.w3.org/2000/svg" xmlns:xlink="http://www.w3.org/1999/xlink" x="0px" y="0px"
	 width="766px" height="517px" viewBox="0 0 766 517" enable-background="new 0 0 766 517" xml:space="preserve">
<linearGradient id="SVGID_1_" gradientUnits="userSpaceOnUse" x1="0" y1="258.5" x2="766" y2="258.5">
	<stop  offset="0" style="stop-color:#FDC283"/>
	<stop  offset="1" style="stop-color:#F58220"/>
</linearGradient>
<path fill="url(#SVGID_1_)" d="M187,178.5c0,15.196,1.897,29.95,5.47,44.035c-3.943-0.353-7.935-0.535-11.97-0.535
	c-16.776,0-32.823,3.117-47.595,8.805C120.803,216.836,102.933,208,83,208c-36.451,0-66,29.549-66,66
	c0,24.447,13.294,45.79,33.045,57.195C48.703,338.761,48,346.549,48,354.5c0,10.894,1.316,21.48,3.795,31.61
	c-1.088-0.073-2.188-0.11-3.295-0.11C21.714,386,0,407.714,0,434.5S21.714,483,48.5,483c19.869,0,36.944-11.948,44.44-29.05
	C116.287,474.521,146.937,487,180.5,487c33.027,0,63.233-12.083,86.435-32.07C284.689,474.622,346.5,517,446,517
	c63,0,157.68-42.899,185.345-64.54C644.899,470.975,666.796,483,691.5,483c41.146,0,74.5-33.354,74.5-74.5
	c0-40.411-32.175-73.308-72.305-74.47c0.201-3.318,0.305-6.661,0.305-10.03c0-85.921-66.478-156.313-150.805-162.55
	C534.611,70.864,458.333,0,365.5,0C266.916,0,187,79.916,187,178.5z"/>
</svg>
