<?xml version="1.0" encoding="utf-8"?>
<!-- Generator: Adobe Illustrator 17.0.0, SVG Export Plug-In . SVG Version: 6.00 Build 0)  -->
<!DOCTYPE svg PUBLIC "-//W3C//DTD SVG 1.1//EN" "http://www.w3.org/Graphics/SVG/1.1/DTD/svg11.dtd">
<svg version="1.1" id="Layer_1" xmlns="http://www.w3.org/2000/svg" xmlns:xlink="http://www.w3.org/1999/xlink" x="0px" y="0px"
	 width="800px" height="502px" viewBox="0 0 800 502" enable-background="new 0 0 800 502" xml:space="preserve">
<path fill="#FFFFFF" d="M104,143c0,27.81,7.936,53.766,21.67,75.725C55.08,225.9,0,285.516,0,358c0,77.321,62.679,140,140,140
	c38.627,0,73.6-15.644,98.93-40.94C266.075,484.207,303.576,501,345,501c46.656,0,88.334-21.299,115.845-54.705
	C474.272,478.424,506,501,543,501c34.514,0,64.441-19.646,79.205-48.365C639.03,479.859,669.145,498,703.5,498
	c52.744,0,95.5-42.756,95.5-95.5c0-36.099-20.029-67.519-49.58-83.755c5.563-16.396,8.58-33.969,8.58-52.245
	c0-89.747-72.753-162.5-162.5-162.5c-57.153,0-107.416,29.506-136.385,74.115C444.811,161.513,423.634,151,400,151
	c-3.477,0-6.903,0.229-10.26,0.67c0.171-2.867,0.26-5.759,0.26-8.67C390,64.022,325.978,0,247,0S104,64.022,104,143z"/>
</svg>
