<?xml version="1.0" encoding="utf-8"?>
<!-- Generator: Adobe Illustrator 17.0.0, SVG Export Plug-In . SVG Version: 6.00 Build 0)  -->
<!DOCTYPE svg PUBLIC "-//W3C//DTD SVG 1.1//EN" "http://www.w3.org/Graphics/SVG/1.1/DTD/svg11.dtd">
<svg version="1.1" id="Layer_1" xmlns="http://www.w3.org/2000/svg" xmlns:xlink="http://www.w3.org/1999/xlink" x="0px" y="0px"
	 width="2064px" height="2064px" viewBox="0 0 2064 2064" enable-background="new 0 0 2064 2064" xml:space="preserve">
<g id="g5502">
	<g id="g4962" transform="translate(1695.7511,-3552.5044)" opacity="0.2">
		
			<radialGradient id="use4891_1_" cx="-3488.7007" cy="1982.4683" r="1032.3195" gradientTransform="matrix(1 0 0 -1 2825.6333 6567.4727)" gradientUnits="userSpaceOnUse">
			<stop  offset="0" style="stop-color:#FFFFFF"/>
			<stop  offset="1" style="stop-color:#FFFFFF;stop-opacity:0"/>
		</radialGradient>
		<path id="use4891" fill="url(#use4891_1_)" d="M-747.308,5616.952h168.481l-84.241-1069.855L-747.308,5616.952z
			 M-747.308,3553.057h168.481l-84.241,1069.855L-747.308,3553.057L-747.308,3553.057z"/>
		
			<radialGradient id="use4895_1_" cx="-3488.7009" cy="1982.4686" r="1032.3191" gradientTransform="matrix(1 0 0 -1 2825.6333 6567.4727)" gradientUnits="userSpaceOnUse">
			<stop  offset="0" style="stop-color:#FFFFFF"/>
			<stop  offset="1" style="stop-color:#FFFFFF;stop-opacity:0"/>
		</radialGradient>
		<path id="use4895" fill="url(#use4895_1_)" d="M-1011.525,5559.985l162.74,43.606l195.529-1055.204L-1011.525,5559.985
			L-1011.525,5559.985z M-477.35,3566.417l162.74,43.606l-358.269,1011.598L-477.35,3566.417L-477.35,3566.417z"/>
		
			<radialGradient id="use4899_1_" cx="-3488.7009" cy="1982.4683" r="1032.3193" gradientTransform="matrix(1 0 0 -1 2825.6333 6567.4727)" gradientUnits="userSpaceOnUse">
			<stop  offset="0" style="stop-color:#FFFFFF"/>
			<stop  offset="1" style="stop-color:#FFFFFF;stop-opacity:0"/>
		</radialGradient>
		<path id="use4899" fill="url(#use4899_1_)" d="M-1251.996,5436.576l145.909,84.241l461.973-968.642L-1251.996,5436.576
			L-1251.996,5436.576z M-220.049,3649.192l145.909,84.241l-607.882,884.402L-220.049,3649.192L-220.049,3649.192z"/>
		
			<radialGradient id="use4903_1_" cx="-3488.7007" cy="1982.4685" r="1032.3192" gradientTransform="matrix(1 0 0 -1 2825.6333 6567.4727)" gradientUnits="userSpaceOnUse">
			<stop  offset="0" style="stop-color:#FFFFFF"/>
			<stop  offset="1" style="stop-color:#FFFFFF;stop-opacity:0"/>
		</radialGradient>
		<path id="use4903" fill="url(#use4903_1_)" d="M-1452.331,5255.134l119.134,119.134l696.935-816.069L-1452.331,5255.134z
			 M7.062,3795.74l119.134,119.134l-816.069,696.935L7.062,3795.74z"/>
		
			<radialGradient id="use4907_1_" cx="-3488.7007" cy="1982.4683" r="1032.3193" gradientTransform="matrix(1 0 0 -1 2825.6333 6567.4727)" gradientUnits="userSpaceOnUse">
			<stop  offset="0" style="stop-color:#FFFFFF"/>
			<stop  offset="1" style="stop-color:#FFFFFF;stop-opacity:0"/>
		</radialGradient>
		<path id="use4907" fill="url(#use4907_1_)" d="M-1598.88,5028.023l84.241,145.909l884.402-607.882L-1598.88,5028.023
			L-1598.88,5028.023z M188.504,3996.076l84.241,145.909l-968.642,461.973L188.504,3996.076z"/>
		
			<radialGradient id="use4911_1_" cx="-3488.7009" cy="1982.4685" r="1032.3193" gradientTransform="matrix(1 0 0 -1 2825.6333 6567.4727)" gradientUnits="userSpaceOnUse">
			<stop  offset="0" style="stop-color:#FFFFFF"/>
			<stop  offset="1" style="stop-color:#FFFFFF;stop-opacity:0"/>
		</radialGradient>
		<path id="use4911" fill="url(#use4911_1_)" d="M-1681.655,4770.722l43.606,162.74l1011.598-358.269L-1681.655,4770.722z
			 M311.914,4236.546l43.606,162.741l-1055.204,195.529L311.914,4236.546z"/>
		
			<radialGradient id="use4915_1_" cx="-3488.7009" cy="1982.4685" r="1032.3193" gradientTransform="matrix(1 0 0 -1 2825.6333 6567.4727)" gradientUnits="userSpaceOnUse">
			<stop  offset="0" style="stop-color:#FFFFFF"/>
			<stop  offset="1" style="stop-color:#FFFFFF;stop-opacity:0"/>
		</radialGradient>
		<path id="use4915" fill="url(#use4915_1_)" d="M-1695.015,4500.764v168.481l1069.855-84.241L-1695.015,4500.764
			L-1695.015,4500.764z M368.879,4500.764v168.481l-1069.855-84.24L368.879,4500.764L368.879,4500.764z"/>
		
			<radialGradient id="use4919_1_" cx="-3488.7007" cy="1982.4683" r="1032.3193" gradientTransform="matrix(1 0 0 -1 2825.6333 6567.4727)" gradientUnits="userSpaceOnUse">
			<stop  offset="0" style="stop-color:#FFFFFF"/>
			<stop  offset="1" style="stop-color:#FFFFFF;stop-opacity:0"/>
		</radialGradient>
		<path id="use4919" fill="url(#use4919_1_)" d="M-1638.049,4236.546l-43.606,162.741l1055.204,195.529L-1638.049,4236.546
			L-1638.049,4236.546z M355.52,4770.722l-43.606,162.74l-1011.598-358.269L355.52,4770.722z"/>
		
			<radialGradient id="use4923_1_" cx="-3488.7007" cy="1982.4684" r="1032.3193" gradientTransform="matrix(1 0 0 -1 2825.6333 6567.4727)" gradientUnits="userSpaceOnUse">
			<stop  offset="0" style="stop-color:#FFFFFF"/>
			<stop  offset="1" style="stop-color:#FFFFFF;stop-opacity:0"/>
		</radialGradient>
		<path id="use4923" fill="url(#use4923_1_)" d="M-1514.64,3996.076l-84.241,145.909l968.642,461.973L-1514.64,3996.076z
			 M272.745,5028.023l-84.241,145.909l-884.402-607.882L272.745,5028.023z"/>
		
			<radialGradient id="use4927_1_" cx="-3488.7007" cy="1982.4683" r="1032.3193" gradientTransform="matrix(1 0 0 -1 2825.6333 6567.4727)" gradientUnits="userSpaceOnUse">
			<stop  offset="0" style="stop-color:#FFFFFF"/>
			<stop  offset="1" style="stop-color:#FFFFFF;stop-opacity:0"/>
		</radialGradient>
		<path id="use4927" fill="url(#use4927_1_)" d="M-1333.197,3795.74l-119.134,119.134l816.069,696.935L-1333.197,3795.74
			L-1333.197,3795.74z M126.196,5255.134L7.062,5374.268l-696.935-816.069L126.196,5255.134z"/>
		
			<radialGradient id="use4931_1_" cx="-3488.7007" cy="1982.4683" r="1032.3192" gradientTransform="matrix(1 0 0 -1 2825.6333 6567.4727)" gradientUnits="userSpaceOnUse">
			<stop  offset="0" style="stop-color:#FFFFFF"/>
			<stop  offset="1" style="stop-color:#FFFFFF;stop-opacity:0"/>
		</radialGradient>
		<path id="use4931" fill="url(#use4931_1_)" d="M-1106.087,3649.192l-145.909,84.241l607.882,884.402L-1106.087,3649.192
			L-1106.087,3649.192z M-74.14,5436.576l-145.909,84.241l-461.973-968.642L-74.14,5436.576L-74.14,5436.576z"/>
		
			<radialGradient id="use4935_1_" cx="-3488.7007" cy="1982.4683" r="1032.3193" gradientTransform="matrix(1 0 0 -1 2825.6333 6567.4727)" gradientUnits="userSpaceOnUse">
			<stop  offset="0" style="stop-color:#FFFFFF"/>
			<stop  offset="1" style="stop-color:#FFFFFF;stop-opacity:0"/>
		</radialGradient>
		<path id="use4935" fill="url(#use4935_1_)" d="M-848.785,3566.417l-162.74,43.606l358.269,1011.598L-848.785,3566.417
			L-848.785,3566.417z M-314.61,5559.986l-162.74,43.606l-195.529-1055.204L-314.61,5559.986L-314.61,5559.986z"/>
	</g>
	<g id="path4773" sodipodi:rx="301.42856" sodipodi:ry="301.42856" sodipodi:cy="479.50504" sodipodi:cx="430" sodipodi:type="arc">
		<circle fill="#F7F4B0" cx="1032.684" cy="1006.1" r="224.44"/>
	</g>
</g>
</svg>
