<?xml version="1.0" standalone="no"?>
<!DOCTYPE svg PUBLIC "-//W3C//DTD SVG 1.1//EN" "http://www.w3.org/Graphics/SVG/1.1/DTD/svg11.dtd" >
<svg xmlns="http://www.w3.org/2000/svg">
<metadata>
This is a custom SVG font generated by IcoMoon.
<iconset grid="16"></iconset>
</metadata>
<defs>
<font id="solar-font" horiz-adv-x="512" >
<font-face units-per-em="512" ascent="480" descent="-32" />
<missing-glyph horiz-adv-x="512" />
<glyph class="hidden" unicode="&#xf000;" d="M0,480L 512 -32L0 -32 z" horiz-adv-x="0" />
<glyph unicode="&#xe000;" d="M 426.44,12.864l-12.245,82.389c-2.411,16.299-20.309,37.333-34.048,43.584c-13.76,6.272-97.109,34.795-104.384,51.264
		c-3.264,7.339-3.499,18.389-2.837,28.437c 0.171,2.475, 0.363,4.864, 0.597,7.125c 0.064,0.64, 0.128,1.301, 0.213,1.92
		c 0.235,1.877, 0.469,3.563, 0.683,5.163c 0.171,1.045, 0.32,2.197, 0.469,3.093c 0.043,0.235, 0.064,0.384, 0.107,0.597
		c 0.533,3.307, 0.981,5.397, 0.981,5.397c 8.277,12.715, 15.125,27.563, 20.565,43.499c 0.341-0.043, 0.704-0.235, 1.088-0.235l 0.043,0 
		c 0.043,0, 0.064,0.021, 0.107,0.021c 1.984,0.021, 3.883,0.597, 5.739,1.451c 0.533,0.256, 1.045,0.491, 1.557,0.811
		c 1.621,0.896, 3.179,2.048, 4.651,3.435c 0.235,0.213, 0.448,0.32, 0.661,0.533c 1.664,1.685, 3.2,3.648, 4.629,5.76
		c 0.32,0.491, 0.64,1.003, 0.96,1.515c 1.195,1.941, 2.283,3.947, 3.264,6.101c 0.128,0.256, 0.299,0.448, 0.384,0.725L 319.667,305.557 
		c 1.749,4.032, 3.093,8.256, 3.84,12.331c 1.899,10.496, 2.283,20.352-1.067,26.048L 322.418,343.957 C 322.355,344, 322.291,344, 322.269,344.064
		c-0.768,1.237-1.771,2.219-2.965,2.987c-0.299,0.192-0.533,0.363-0.875,0.533c-1.365,0.683-2.923,1.152-4.843,1.173
		c-0.043,0-0.043,0.021-0.085,0.021l-0.043,0 c-0.747,0-1.664-0.171-2.496-0.299c 12.608,39.36, 13.909,66.581, 13.909,66.581
		c 6.443,3.925,0,7.253,0,7.253c-7.488,1.664-10.347,7.253-10.347,7.253c-2.197,13.952-15.083,23.403-15.083,23.403
		c 7.253,6.123,0,6.144,0,6.144c-14.507-0.555-28.992,9.472-28.992,9.472c-5.589,6.144-21.739,6.699-21.739,6.699
		c-17.28,0-37.909,3.904-37.909,3.904C 165.662,485.355, 153.395,453.013, 153.395,453.013C 141.107,456.363, 132.19,448.512, 132.19,448.512
		C 98.718,432.853, 111.006,382.763, 111.006,382.763c 2.197-13.952, 3.925-34.24, 3.925-34.24C 114.099,348.629, 113.182,348.821, 112.414,348.821
		C 99.976,348.821, 99.528,333.931, 102.43,317.888c 2.709-15.083, 13.355-32.768, 25.835-32.768c 0.405,0, 0.768,0.213, 1.131,0.256
		c 5.44-15.957, 12.288-30.784, 20.565-43.499c0,0, 7.488-35.328, 0.213-51.755c-7.275-16.469-90.624-45.013-104.384-51.264
		c-13.717-6.251-31.659-27.285-34.048-43.584L-0.589,12.203c0-24.405, 84.224-44.203, 213.568-44.203c 129.365,0, 213.611,19.797, 213.611,44.203
		C 426.611,12.437, 426.44,12.629, 426.44,12.864z" horiz-adv-x="426"  />
<glyph unicode="&#xe001;" d="M 256-32c-141.141,0-256,114.83-256,256c0,141.141, 114.859,256, 256,256s 256-114.859, 256-256C 512,82.83, 397.141-32, 256-32z M 256,423.111
			C 146.204,423.111, 56.889,333.796, 56.889,224c0-109.767, 89.316-199.111, 199.111-199.111s 199.111,89.344, 199.111,199.111C 455.111,333.796, 365.796,423.111, 256,423.111z"  />
<glyph unicode="&#xe002;" d="M 256.011,480C 114.642,480,0,365.386,0,224.028C0,82.62, 114.642-32, 256.011-32C 397.409-32, 512,82.62, 512,224.028
		C 512,365.386, 397.409,480, 256.011,480z M 301.124,136.363c-3.112-2.355-6.775-3.482-10.399-3.482c-5.262,0-10.473,2.395-13.892,6.94
		c-4.972,6.628-12.572,10.422-20.827,10.422c-8.277,0-15.872-3.794-20.827-10.422c-5.774-7.68-16.64-9.21-24.309-3.453
		c-7.68,5.757-9.21,16.634-3.453,24.297c 11.429,15.212, 29.582,24.274, 48.589,24.274s 37.177-9.062, 48.583-24.274
		C 310.34,152.997, 308.787,142.12, 301.124,136.363z M 344.519,179.74c-7.663-5.74-18.546-4.198-24.297,3.453
		c-15.326,20.44-38.741,32.119-64.216,32.119c-25.498,0-48.89-11.685-64.216-32.119c-3.408-4.528-8.619-6.935-13.892-6.935
		c-3.63,0-7.287,1.143-10.405,3.476c-7.669,5.774-9.233,16.646-3.459,24.32c 21.97,29.212, 55.467,45.989, 91.978,45.989
		c 36.489,0, 70.025-16.777, 91.972-45.989C 353.746,196.386, 352.182,185.509, 344.519,179.74z M 387.908,223.152c-7.663-5.757-18.54-4.21-24.297,3.442
		c-25.702,34.19-64.922,53.811-107.611,53.811c-42.712,0-81.931-19.621-107.611-53.811c-3.408-4.534-8.624-6.94-13.909-6.94
		c-3.612,0-7.265,1.126-10.388,3.476c-7.68,5.763-9.21,16.64-3.447,24.309c 15.423,20.543, 35.652,37.569, 58.47,49.237
		c 23.962,12.231, 49.829,18.438, 76.891,18.438s 52.941-6.207, 76.88-18.438c 22.83-11.668, 43.042-28.695, 58.482-49.237
		C 397.119,239.775, 395.548,228.892, 387.908,223.152z"  />
<glyph unicode="&#xe004;" d="M 256.228,480C 114.847,480, 0.222,365.369, 0.222,224c0-141.392, 114.62-256, 256.006-256c 141.375,0, 255.994,114.608, 255.994,256
				C 512.222,365.369, 397.602,480, 256.228,480z M 168.232,314.169l 89.293,25.39l-0.438,0.125l 0.887,0 l-0.449-0.125l 74.024-21.043L 186.67,173.636
				L 168.232,314.169z M 325.695,153.179l-68.17-44.567l 0.449-0.313l-0.882,0 l 0.432,0.313L 197.575,147.792l 146.648,146.642L 325.695,153.179z"  />
<glyph unicode="&#xe005;" d="M 256.563,480c-141.369,0-256-114.608-256-256c0-141.392, 114.625-256, 256-256c 141.392,0, 256,114.608, 256,256
		C 512.563,365.392, 397.955,480, 256.563,480z M 235.594,85.965l 14.615,113.243L 191.972,200.391l 85.567,161.644L 262.94,248.792l 58.22-1.189
		L 235.594,85.965z"  />
<glyph unicode="&#xe006;" d="M 256,480C 114.603,480,0,365.375,0,224c0-141.386, 114.603-256, 256-256c 141.392,0, 256,114.614, 256,256C 512,365.375, 397.392,480, 256,480z
		 M 373.129,206.603c-8.198,0-14.928,6.053-16.071,13.904L 290.566,220.507 c-0.62-6.781-3.26-12.931-7.407-17.886l 48.247-48.265
		c 6.389,4.642, 15.349,4.124, 21.1-1.644c 6.377-6.354, 6.377-16.691,0-23.074c-6.377-6.366-16.714-6.366-23.080,0
		c-5.581,5.581-6.275,14.165-2.122,20.491l-48.321,48.344c-4.944-4.164-11.093-6.798-17.897-7.418L 261.086,122.908 
		c 7.612-1.399, 13.403-8.038, 13.403-16.026c0-9.011-7.322-16.321-16.333-16.321c-9.023,0-16.321,7.31-16.321,16.321
		c0,7.987, 5.78,14.626, 13.369,16.026L 255.204,191.050 c-6.798,0.614-12.965,3.254-17.897,7.396l-48.225-48.196c 5.148-6.434, 4.83-15.758-1.121-21.697
		c-6.377-6.372-16.72-6.372-23.091,0.017c-6.366,6.366-6.366,16.697,0,23.080c 5.376,5.353, 13.551,6.15, 19.792,2.469l 48.475,48.481
		c-4.13,4.972-6.798,11.105-7.39,17.903L 154.937,220.501 c-1.149-7.851-7.885-13.904-16.094-13.904c-9.006,0-16.287,7.305-16.287,16.316
		c0,9.023, 7.282,16.333, 16.287,16.333c 7.856,0, 14.364-5.518, 15.991-12.851l 70.912,0 c 0.592,6.798, 3.288,12.954, 7.39,17.897l-48.856,48.862
		c-6.32-4.164-14.916-3.459-20.497,2.116c-6.366,6.372-6.366,16.708,0,23.086c 6.366,6.36, 16.72,6.36, 23.091,0
		c 5.769-5.763, 6.269-14.717, 1.638-21.094l 48.805-48.799c 4.921,4.136, 11.088,6.781, 17.886,7.401L 255.204,325.097 c-7.589,1.388-13.369,8.010-13.369,16.026
		c0,9.017, 7.299,16.321, 16.321,16.321c 9.011,0, 16.333-7.305, 16.333-16.321c0-8.016-5.791-14.638-13.403-16.026l0-69.228 
		c 6.804-0.614, 12.954-3.265, 17.897-7.401l 49.044,49.010c-3.686,6.258-2.901,14.427, 2.48,19.797c 6.366,6.383, 16.714,6.383, 23.091,0
		c 6.366-6.372, 6.366-16.708,0-23.080c-5.956-5.939-15.269-6.263-21.697-1.149l-48.737-48.748c 4.147-4.961, 6.781-11.099, 7.407-17.897l 66.623,0 
		c 1.587,7.333, 8.112,12.851, 15.94,12.851c 9.006,0, 16.327-7.31, 16.327-16.333C 389.456,213.908, 382.134,206.603, 373.129,206.603z"  />
<glyph unicode="&#xe008;" d="M 456.676,319.829L 584.42,319.829L 584.42-41.984L 456.676-41.984zM 1062.542,319.829L 1190.286,319.829L 1190.286-41.984L 1062.542-41.984zM 1851.221,432.981L 1723.392,432.981L 1723.392,319.829L 1660.359,319.829L 1660.359,213.874L 1723.392,213.874L 1723.392-41.984L 1851.221-41.984L 1851.221,213.874L 1914.311,213.874L 1914.311,319.829L 1851.221,319.829 		zM 1126.059,491.321c-36.978,0-66.418-29.468-66.418-66.389c0-37.006, 29.44-67.186, 66.418-67.186
			c 37.006,0, 67.157,30.208, 67.157,67.186C 1193.244,461.852, 1163.065,491.321, 1126.059,491.321zM 1501.298,327.851c-30.948,0-61.184-7.054-84.196-18.631c-21.959-10.98-37.518-25.913-45.113-36.267l-2.702,0 L 1369.259,319.829 L 1241.458,319.829 
			l0-361.785 l 127.801,0 l0,184.718 c0,63.204, 36.039,79.332, 72.988,79.332c 37.035,0, 60.587-31.374, 60.587-68.324l0-195.726 l 127.829,0 l0,221.98 
			c0,48.213-14.649,84.935-36.437,108.601C 1572.437,312.235, 1533.81,327.851, 1501.298,327.851zM 1980.786,90.226c-36.978,0-66.475-29.412-66.475-66.389c0-36.949, 29.497-67.129, 66.475-67.129
			c 37.035,0, 67.214,30.208, 67.214,67.129C 2048,60.786, 2017.792,90.226, 1980.786,90.226zM 520.164,491.321c-37.035,0-66.446-29.468-66.446-66.389c0-37.006, 29.412-67.186, 66.446-67.186
			c 37.035,0, 67.186,30.208, 67.186,67.186C 587.349,461.852, 557.198,491.321, 520.164,491.321zM 824.491,108.459L 739.612,319.829L 605.867,319.829L 764.416-41.984L 882.517-41.984L 1041.152,319.829L 909.34,319.829 
					zM 218.624,108.459L 133.774,319.829L0,319.829L 158.578-41.984L 276.679-41.984L 435.257,319.829L 303.474,319.829 		z" horiz-adv-x="2048"  />
<glyph unicode="&#xe007;" d="M 376.696,291.539C 376.696,395.625, 292.322,480, 188.235,480C 84.164,480-0.226,395.625-0.226,291.539
	c0-49.077, 18.929-93.621, 49.664-127.157L 49.182,164.382 C 187.256,3.72, 158.72-32, 188.235-32c 29.5,0, 1.702,35.689, 139.053,196.382l-0.256,0 
	C 357.783,197.918, 376.696,242.462, 376.696,291.539z M 188.235,403.381c 61.771,0, 111.827-50.086, 111.827-111.842c-0.015-61.756-50.071-111.812-111.827-111.812
	s-111.827,50.056-111.827,111.812S 126.479,403.381, 188.235,403.381z" horiz-adv-x="376.471"  />
<glyph unicode="&#xe00e;" d="M 2.372,481.681l 70.818,0 l 184.559-424.917l 184.559,424.917l 67.243,0 l0-506.47 l-47.215,0 l0,446.379 l-1.434,0 l-193.152-446.379l-20.745,0 
		l-196.011,446.379l-1.434,0 l0-446.379 l-47.215,0 L 2.364,481.681 zM 643.328,481.681l 309.743,0 l0-42.923 l-262.528,0 l0-180.267 l 246.084,0 l0-42.923 l-246.084,0 l0-197.436 l 273.98,0 l0-42.923 l-321.195,0 L 643.328,481.681 zM 1067.52,481.681L 1200.572,481.681 c 6.665,0, 15.735-0.247, 27.179-0.717c 11.443-0.486, 23.842-1.92, 37.197-4.292
		c 13.346-2.389, 26.94-6.204, 40.772-11.443c 13.824-5.257, 26.223-12.877, 37.197-22.895c 10.957-10.018, 20.028-22.665, 27.179-37.914
		c 7.151-15.266, 10.735-33.869, 10.735-55.799c0-24.32-4.181-44.348-12.527-60.092c-8.346-15.735-18.85-28.501-31.471-38.272
		c-12.638-9.779-26.598-17.058-41.847-21.82c-15.266-4.77-29.815-8.115-43.639-10.018l 147.362-243.217l-53.649,0 L 1202.722,215.569L 1114.726,215.569 l0-240.358 l-47.215,0 
		L 1067.52,481.681 z M 1114.726,258.492l 100.147,0 c 24.789,0, 44.937,3.089, 60.45,9.301c 15.488,6.195, 27.537,13.833, 36.122,22.895
		c 8.585,9.054, 14.421,18.833, 17.527,29.329c 3.098,10.487, 4.659,20.028, 4.659,28.612c0,8.585-1.562,18.116-4.659,28.612
		c-3.098,10.487-8.943,20.258-17.527,29.329c-8.585,9.054-20.634,16.683-36.122,22.895c-15.497,6.195-35.661,9.301-60.45,9.301l-100.147,0 L 1114.726,258.492 zM 1908.762,54.613c-24.32-32.905-52.471-56.516-84.412-70.818c-31.957-14.31-66.526-21.461-103.723-21.461c-38.63,0-74.035,6.562-106.24,19.669
		c-32.179,13.116-59.733,31.479-82.62,55.083c-22.895,23.603-40.764,51.746-53.649,84.412c-12.877,32.657-19.311,68.318-19.311,106.948
		c0,38.63, 6.434,74.155, 19.311,106.59c 12.885,32.427, 30.763,60.45, 53.649,84.053c 22.895,23.603, 50.441,42.078, 82.62,55.441
		c 32.188,13.346, 67.601,20.028, 106.24,20.028c 34.33,0, 66.398-6.084, 96.213-18.244c 29.798-12.16, 55.91-32.546, 78.327-61.167l-38.63-32.188
		c-15.744,23.842-35.891,41.242-60.459,52.224c-24.567,10.965-49.715,16.452-75.46,16.452c-32.905,0-62.601-5.726-89.062-17.169
		c-26.47-11.443-48.998-27.187-67.601-47.215c-18.603-20.028-32.905-43.639-42.923-70.818s-15.019-56.516-15.019-87.987
		c0-31.479, 5.009-60.809, 15.019-87.987c 10.018-27.187, 24.32-50.79, 42.923-70.818c 18.611-20.028, 41.131-35.772, 67.601-47.215
		c 26.462-11.443, 56.158-17.169, 89.062-17.169c 12.877,0, 26.223,1.545, 40.064,4.651c 13.824,3.089, 27.298,7.868, 40.405,14.31s 25.634,14.549, 37.555,24.32
		c 11.913,9.771, 22.417,21.572, 31.479,35.413L 1908.762,54.613zM 2355.149,169.071c0-27.187-3.106-53.18-9.31-77.978c-6.212-24.798-16.572-46.746-31.113-65.809
		c-14.558-19.072-33.621-34.338-57.233-45.781c-23.595-11.443-52.582-17.169-86.912-17.169c-34.33,0-63.309,5.726-86.903,17.169
		c-23.603,11.443-42.692,26.709-57.233,45.781c-14.558,19.063-24.926,41.011-31.113,65.809c-6.212,24.789-9.31,50.79-9.31,77.978l0,312.61 l 47.215,0 
		l0-300.45 c0-18.133, 1.673-37.444, 5.018-57.941c 3.328-20.514, 9.89-39.595, 19.669-57.225c 9.771-17.647, 23.595-32.188, 41.489-43.639
		c 17.886-11.443, 41.6-17.169, 71.168-17.169c 29.568,0, 53.299,5.726, 71.177,17.169c 17.886,11.443, 31.71,25.993, 41.489,43.639
		c 9.771,17.638, 16.333,36.719, 19.669,57.225c 3.337,20.497, 5.018,39.817, 5.018,57.941l0,300.45 l 47.215,0 L 2355.149,169.071 zM 2484.617,481.681l 133.052,0 c 6.665,0, 15.735-0.247, 27.179-0.717c 11.443-0.486, 23.842-1.92, 37.197-4.292
		c 13.346-2.389, 26.94-6.204, 40.772-11.443c 13.824-5.257, 26.223-12.877, 37.197-22.895c 10.957-10.018, 20.028-22.665, 27.179-37.914
		c 7.151-15.266, 10.735-33.869, 10.735-55.799c0-24.32-4.181-44.348-12.527-60.092c-8.346-15.735-18.85-28.501-31.471-38.272
		c-12.638-9.779-26.598-17.058-41.847-21.82c-15.266-4.77-29.815-8.115-43.639-10.018l 147.362-243.217l-53.649,0 l-142.353,240.358l-87.987,0 l0-240.358 
		l-47.215,0 L 2484.608,481.681 z M 2531.831,258.492l 100.147,0 c 24.789,0, 44.937,3.089, 60.45,9.301c 15.488,6.195, 27.537,13.833, 36.122,22.895
		c 8.585,9.054, 14.421,18.833, 17.527,29.329c 3.098,10.487, 4.659,20.028, 4.659,28.612c0,8.585-1.562,18.116-4.659,28.612
		c-3.098,10.487-8.943,20.258-17.527,29.329c-8.585,9.054-20.634,16.683-36.122,22.895c-15.497,6.195-35.661,9.301-60.45,9.301l-100.147,0 L 2531.831,258.492 zM 3011.831,193.399l-185.993,288.29l 56.516,0 l 153.097-240.358l 156.663,240.358l 52.932,0 l-185.993-288.29l0-218.18 l-47.215,0 L 3011.84,193.399 z" horiz-adv-x="3242.667"  />
<glyph unicode="&#xe003;" d="M 256,480C 114.603,480,0,365.386,0,224s 114.603-256, 256-256c 141.392,0, 256,114.614, 256,256S 397.392,480, 256,480z M 366.433,224
			c0-0.899-0.119-1.775-0.137-2.679l 19.894-20.27l-25.583-12.225c-0.575-1.718-1.206-3.419-1.86-5.092l 11.73-25.828l-28.217-2.736
			c-1.115-1.394-2.304-2.753-3.493-4.107l 2.202-28.325l-27.5,7.1c-1.559-0.967-3.072-1.974-4.688-2.844l-7.566-27.21l-23.29,15.986
			c-1.775-0.353-3.601-0.558-5.41-0.836L 256,91.802l-16.521,23.137c-1.798,0.279-3.635,0.466-5.387,0.836l-23.29-15.997l-7.566,27.204
			c-1.599,0.87-3.123,1.889-4.688,2.85L 171.031,122.738l 2.213,28.319c-1.183,1.343-2.378,2.697-3.504,4.102l-28.217,2.748l 11.742,25.788
			c-0.66,1.69-1.297,3.402-1.866,5.126l-25.583,12.225l 19.888,20.252c-0.011,0.899-0.131,1.792-0.131,2.702
			c0,0.916, 0.119,1.781, 0.131,2.679l-19.888,20.281l 25.566,12.208c 0.586,1.735, 1.217,3.436, 1.877,5.12l-11.73,25.81l 28.194,2.725
			c 1.126,1.417, 2.315,2.77, 3.516,4.13l-2.202,28.331l 27.5-7.105c 1.559,0.95, 3.078,1.968, 4.693,2.85l 7.561,27.193l 23.273-15.969
			c 1.786,0.347, 3.607,0.552, 5.416,0.808L 256,356.198l 16.509-23.137c 1.809-0.262, 3.647-0.461, 5.422-0.808l 23.279,15.969l 7.555-27.193
			c 1.627-0.87, 3.14-1.9, 4.699-2.85l 27.5,7.088l-2.207-28.302c 1.195-1.36, 2.384-2.719, 3.516-4.124l 28.2-2.742l-11.73-25.81
			c 0.654-1.684, 1.291-3.379, 1.86-5.103l 25.583-12.22l-19.894-20.281C 366.313,225.786, 366.433,224.916, 366.433,224zM 243.211,184.098c0-7.566, 6.127-13.699, 13.687-13.699c 7.561,0, 13.699,6.133, 13.699,13.699l0,13.682 l-27.386,0 L 243.211,184.098 zM 277.436,262.679L 291.738,262.679L 291.738,226.953L 277.436,226.953zM 220.279,262.679L 234.559,262.679L 234.559,226.953L 220.279,226.953z"  />
<glyph unicode="&#xe009;" d="M 45.267,54.492c 22.634-27.726, 47.449-45.967, 87.569-45.967c 35.782,0, 75.202,15.304, 75.202,52.568
			c0,36.51-36.51,45.994-72.992,54.050c-65.017,14.63-120.469,28.48-120.469,99.29c0,66.445, 64.289,100.745, 127.77,100.745
			c 48.15,0, 92.689-18.241, 116.049-62.053l-47.503-31.391C 196.371,245.77, 172.336,262.558, 138.737,262.558c-31.418,0-67.173-15.331-67.173-47.449
			c0-28.48, 40.875-40.875, 86.142-49.659c 60.571-11.667, 111.712-33.572, 111.712-102.2c0-77.385-68.628-107.319-136.527-107.319
			c-57.661,0-99.263,15.304-132.863,63.535L 45.267,54.492zM 500.574,315.126c 105.138,0, 182.548-73.019, 182.548-179.584c0-106.592-77.385-179.611-182.548-179.611
			c-105.084,0-182.468,73.019-182.468,179.611C 318.106,242.107, 395.49,315.126, 500.574,315.126z M 500.574,8.498c 73.801,0, 121.223,55.479, 121.223,127.043
			c0,71.537-47.449,127.016-121.223,127.016c-73.747,0-121.169-55.479-121.169-127.016C 379.432,63.977, 426.854,8.498, 500.574,8.498zM 751.938,492.097l 56.988,0 l0-527.411 l-56.988,0 L 751.938,492.097 zM 896.711,262.558c 35.028,35.755, 86.115,52.568, 135.8,52.568c 100.772,0, 143.128-48.177, 143.128-144.53l0-146.739 
			c0-19.697, 2.183-41.602, 5.092-59.143l-54.778,0 c-3.665,15.304-3.665,36.483-3.665,51.113l-1.455,0 c-22.661-35.028-60.571-59.87-112.466-59.87
			c-69.355,0-127.043,35.028-127.043,101.5c0,113.167, 131.435,119.741, 215.394,119.741l 21.879,0 l0,10.212 c0,49.632-31.364,75.175-84.687,75.175
			c-36.456,0-74.475-12.422-101.446-37.21L 896.711,262.558z M 1061.692,128.94c-72.292,0-119.014-19.723-119.014-65.691c0-43.084, 32.091-59.143, 75.148-59.143
			c 65.718,0, 99.317,47.449, 100.772,102.955l0,21.906 L 1061.692,128.94 zM 1263.748,225.347c0,31.391-2.937,58.389-2.937,81.049l 54.023,0 c0-18.268, 1.482-37.237, 1.482-56.206l 1.455,0 
			c 15.331,33.599, 57.688,64.963, 113.895,64.963c 7.329,0, 15.331-0.728, 23.36-3.665l-3.611-57.661c-9.511,2.937-20.451,4.392-30.663,4.392
			c-69.381,0-100.045-48.904-100.045-127.043l0-166.436 l-56.934,0 L 1263.748,225.347 z" horiz-adv-x="1455"  />
<glyph unicode="&#xe00a;" d="M-8.481,480l0-512 l 418.944,0 L 410.463,480 L-8.481,480 z M 43.468,419.072l 129.097,0 l0-15.323 l-129.097,0 L 43.468,419.072 z M 172.566,75.301l-129.097,0 l0,15.323 l 129.097,0 L 172.566,75.301 z
		 M 358.531,108.16L 43.468,108.16 l0,15.323 l 315.063,0 L 358.531,108.16 z M 358.531,140.983L 43.468,140.983 l0,15.323 l 315.063,0 L 358.531,140.983 z M 358.531,173.842L 43.468,173.842 l0,15.323 l 315.063,0 L 358.531,173.842 z
		 M 358.531,206.683L 43.468,206.683 l0,15.342 l 315.063,0 L 358.531,206.683 z M 358.531,239.525L 43.468,239.525 l0,15.323 l 315.063,0 L 358.531,239.525 z M 358.531,272.384L 43.468,272.384 l0,15.323 l 315.063,0 L 358.531,272.384 
		z M 358.531,305.225L 43.468,305.225 l0,15.323 l 315.063,0 L 358.531,305.225 z M 358.531,338.085L 43.468,338.085 l0,15.323 l 315.063,0 L 358.531,338.085 z" horiz-adv-x="402"  />
<glyph unicode="&#xe00b;" d="M 277.449-31.722L 2.644,197.304L 83.734,294.599L 264.87,143.635L 566.094,478.315L 660.211,393.578 	z" horiz-adv-x="661"  />
<glyph unicode="&#xe00c;" d="M 85.732,205.568l 63.014,0 c 6.58,0, 12.023,5.385, 12.023,11.985l0,27.136 c0,6.618-5.442,12.004-12.023,12.004L 85.732,256.711 
			c-6.618,0-11.985-5.404-11.985-12.004l0-27.136 C 73.729,210.953, 79.095,205.568, 85.732,205.568zM 205.503,205.568l 63.071,0 c 6.58,0, 11.947,5.385, 11.947,11.985l0,27.136 c0,6.618-5.367,12.004-11.947,12.004l-63.071,0 
			c-6.618,0-11.966-5.404-11.966-12.004l0-27.136 C 193.518,210.953, 198.866,205.568, 205.503,205.568zM 325.254,205.568l 63.033,0 c 6.599,0, 11.966,5.385, 11.966,11.985l0,27.136 c0,6.618-5.385,12.004-11.966,12.004l-63.033,0 
			c-6.58,0-11.966-5.404-11.966-12.004l0-27.136 C 313.288,210.953, 318.692,205.568, 325.254,205.568zM 85.732,125.715l 63.014,0 c 6.58,0, 12.023,5.404, 12.023,11.985l0,27.174 c0,6.599-5.442,11.947-12.023,11.947L 85.732,176.839 
			c-6.618,0-11.985-5.367-11.985-11.947l0-27.174 C 73.729,131.119, 79.095,125.715, 85.732,125.715zM 205.503,125.715l 63.071,0 c 6.58,0, 11.947,5.404, 11.947,11.985l0,27.174 c0,6.599-5.367,11.947-11.947,11.947l-63.071,0 
			c-6.618,0-11.966-5.367-11.966-11.947l0-27.174 C 193.518,131.119, 198.866,125.715, 205.503,125.715zM 325.254,125.715l 63.033,0 c 6.599,0, 11.966,5.404, 11.966,11.985l0,27.174 c0,6.599-5.385,11.947-11.966,11.947l-63.033,0 
			c-6.58,0-11.966-5.367-11.966-11.947l0-27.174 C 313.288,131.119, 318.692,125.715, 325.254,125.715zM 85.732,45.881l 63.014,0 c 6.58,0, 12.023,5.423, 12.023,11.985L 160.788,85.039 c0,6.561-5.442,11.985-12.023,11.985L 85.732,97.043 
			c-6.618,0-11.985-5.404-11.985-11.985l0-27.174 C 73.729,51.285, 79.095,45.881, 85.732,45.881zM 205.503,45.881l 63.071,0 c 6.58,0, 11.947,5.423, 11.947,11.985L 280.52,85.039 c0,6.561-5.367,11.985-11.947,11.985l-63.071,0 
			c-6.618,0-11.966-5.404-11.966-11.985l0-27.174 C 193.518,51.285, 198.866,45.881, 205.503,45.881zM 325.254,45.881l 63.033,0 c 6.599,0, 11.966,5.423, 11.966,11.985L 400.271,85.039 c0,6.561-5.385,11.985-11.966,11.985l-63.033,0 
			c-6.58,0-11.966-5.404-11.966-11.985l0-27.174 C 313.288,51.285, 318.692,45.881, 325.254,45.881zM 477.014,356.911L 477.014,359.623 c0,28.198-22.907,51.162-51.143,51.162l-13.084,0 L 412.806,444.046 C 412.806,463.9, 396.687,480, 376.852,480l0-140.25 
			c-0.152,0-0.265,0-0.379,0c-19.684,0-35.612,16.081-35.612,35.916L 340.86,410.785 L 134.107,410.785 L 134.107,444.046 C 134.107,463.9, 118.064,480, 98.191,480l0-140.25 
			c-0.114,0-0.171,0-0.341,0c-19.684,0-35.65,16.081-35.65,35.916L 62.199,410.785 l-14.071,0 C 19.912,410.785,-3.033,387.84,-3.033,359.623l0-57.685 c0-0.19,0-0.341,0-0.512
			l0-300.297 c0-18.28, 14.905-33.147, 33.185-33.147l 413.715,0 c 18.261,0, 33.128,14.867, 33.128,33.147L 476.995,356.779 C 477.014,356.836, 477.014,356.892, 477.014,356.911z
			 M 434.689,10.306L 39.311,10.306 L 39.311,290.598 l 395.378,0 L 434.689,10.306 z" horiz-adv-x="474"  />
<glyph unicode="&#xe00d;" d="M 31.808-32c-12.928,0-25.92,4.928-35.776,14.784c-19.712,19.712-19.712,51.712,0,71.488L 165.76,224L -3.968,393.728
				c-19.712,19.712-19.712,51.776,0,71.552c 19.712,19.712, 51.776,19.712, 71.552,0L 250.688,282.112c 32.064-32.064, 32.064-84.224,0-116.224L 67.584-17.216
				C 57.728-27.072, 44.8-32, 31.808-32z" horiz-adv-x="256"  />
<glyph unicode="&#xe010;" d="M 416,0L 512,256L 96,256L0,0 zM 64,288 L 0,0 L 0,416 L 144,416 L 208,352 L 416,352 L 416,288 Z"  />
<glyph unicode="&#xe00f;" d="M 0,320 L 512,320 L 480,0 L 32,0 L 0,320 Z M 464,384 L 480,352 L 32,352 L 64,416 L 240,416 L 256,384 L 464,384 Z"  />
<glyph unicode="&#xe014;" d="M 400,416L 112,416 c-26.51,0-48-21.49-48-48l0-16 l 384,0 l0,16 C 448,394.51, 426.51,416, 400,416zM 316.16,448l 7.058-50.5L 188.782,397.5 l 7.057,50.5L 316.16,448  M 320,480L 192,480 c-13.2,0-25.495-10.696-27.321-23.769l-9.357-66.962
	C 153.495,376.196, 162.8,365.5, 176,365.5l 160,0 c 13.2,0, 22.505,10.696, 20.679,23.769l-9.357,66.962C 345.495,469.304, 333.2,480, 320,480L 320,480z
	M 408,320L 104,320 c-17.6,0-30.696-14.341-29.103-31.869l 26.206-288.263C 102.696-17.659, 118.4-32, 136-32l 240,0 
	c 17.6,0, 33.304,14.341, 34.897,31.868l 26.205,288.263C 438.696,305.659, 425.6,320, 408,320z M 192,32l-48,0 l-16,224l 64,0 L 192,32 z M 288,32l-64,0 
	L 224,256 l 64,0 L 288,32 z M 368,32l-48,0 L 320,256 l 64,0 L 368,32z"  />
<glyph unicode="&#xe013;" d="M 507.331,68.67c-0.002,0.002-0.004,0.004-0.006,0.005L 352.003,224l 155.322,155.325c 0.002,0.002, 0.004,0.003, 0.006,0.005
		c 1.672,1.673, 2.881,3.627, 3.656,5.708c 2.123,5.688, 0.912,12.341-3.662,16.915L 433.952,475.326c-4.574,4.573-11.225,5.783-16.914,3.66
		c-2.080-0.775-4.035-1.984-5.709-3.655c0-0.002-0.002-0.003-0.004-0.005L 256.001,320L 100.677,475.325
		c-0.002,0.002-0.003,0.003-0.005,0.005c-1.673,1.671-3.627,2.88-5.707,3.655c-5.69,2.124-12.341,0.913-16.915-3.66L 4.676,401.951
		c-4.574-4.574-5.784-11.226-3.661-16.914c 0.776-2.080, 1.985-4.036, 3.656-5.708c 0.002-0.001, 0.003-0.003, 0.005-0.005L 160.001,224
		L 4.676,68.674c-0.001-0.002-0.003-0.003-0.004-0.005c-1.671-1.673-2.88-3.627-3.657-5.707c-2.124-5.688-0.913-12.341, 3.661-16.915
		l 73.374-73.373c 4.575-4.574, 11.226-5.784, 16.915-3.661c 2.080,0.776, 4.035,1.985, 5.708,3.656c 0.001,0.002, 0.003,0.003, 0.005,0.005
		l 155.324,155.325l 155.324-155.325c 0.002-0.001, 0.004-0.003, 0.006-0.004c 1.674-1.672, 3.627-2.881, 5.707-3.657
		c 5.689-2.123, 12.342-0.913, 16.914,3.661l 73.373,73.374c 4.574,4.574, 5.785,11.227, 3.662,16.915
		C 510.212,65.043, 509.003,66.997, 507.331,68.67z"  />
<glyph unicode="&#xe011;" d="M 160.555-1.849L 160.555,101.746L 216.932,102.172L 216.932-1.436 			zM 188.743-1.422C 188.743-1.991, 188.743-1.991, 188.743-1.422l0,103.168 c0,0.569,0,0.569,0,0L 188.743-1.422 zM 183.154,479.218c 0.356,0.427, 0.939,0.441, 1.308,0l 155.42-179.243c 0.37-0.427, 0.199,2.389-0.356,2.389l-76.331,0 
		c-0.569,0-0.711-3.499-0.341-3.925l 102.059-118.556c 0.37-0.427, 0.213-4.38-0.341-4.38l-81.792,0 c-0.569,0-0.754,1.678-0.441,1.209
		l 90.268-128.1c 0.327-0.455, 0.128,0.014-0.441,0.014L -2.404,48.612 c-0.569,0-0.768,0.555-0.455,1.010l 84.864,125.881
		c 0.313,0.469, 0.114-0.028-0.455-0.028L 6.315,175.488 c-0.569,0-0.725,1.294-0.356,1.721l 98.816,112.597c 0.37,0.427, 0.213-1.564-0.356-1.564L 29.184,288.242 
		c-0.569,0-0.725,3.157-0.37,3.584L 183.154,479.218z" horiz-adv-x="369.778"  />
<glyph unicode="&#x20;" horiz-adv-x="256" />
</font>
</defs>
</svg>
